<svg xmlns="http://www.w3.org/2000/svg" viewBox="0 0 32 40" x="0px" y="0px"><title>progress</title><g data-name="14"><path d="M28.7,28.91H3.3a1.06,1.06,0,0,1,0-2.11H28.7a1.06,1.06,0,0,1,0,2.11Zm0-.61h0Z"/><path d="M8.63,25.75h-4A.75.75,0,0,1,3.88,25V12a.75.75,0,0,1,.75-.75h4a.76.76,0,0,1,.75.75V25A.76.76,0,0,1,8.63,25.75Zm-3.25-1.5h2.5V12.75H5.38Z"/><path d="M14.89,25.65h-4a.75.75,0,0,1-.75-.75V10.08a.75.75,0,0,1,.75-.75h4a.76.76,0,0,1,.75.75V24.9A.76.76,0,0,1,14.89,25.65Zm-3.25-1.5h2.5V10.83h-2.5Z"/><path d="M21.22,25.91h-4a.75.75,0,0,1-.75-.75V14.79a.75.75,0,0,1,.75-.75h4a.76.76,0,0,1,.75.75V25.16A.76.76,0,0,1,21.22,25.91ZM18,24.41h2.5V15.54H18Z"/><path d="M27.37,25.91h-4a.76.76,0,0,1-.75-.75V8.24a.75.75,0,0,1,.75-.75h4a.74.74,0,0,1,.75.75V25.16A.75.75,0,0,1,27.37,25.91Zm-3.25-1.5h2.5V9h-2.5Z"/><path d="M6.63,8.75a1.5,1.5,0,1,1,1.51-1.5A1.51,1.51,0,0,1,6.63,8.75Zm0-1.5Z"/><path d="M12.89,6.83a1.5,1.5,0,1,1,1.51-1.5A1.51,1.51,0,0,1,12.89,6.83Zm0-1.5h0Z"/><path d="M19.22,11.54A1.5,1.5,0,1,1,20.73,10,1.5,1.5,0,0,1,19.22,11.54Zm0-1.5Z"/><path d="M25.37,5a1.51,1.51,0,1,1,1.51-1.5A1.51,1.51,0,0,1,25.37,5Zm0-1.5h0Z"/><path d="M19.22,10.79a.74.74,0,0,1-.45-.15l-6-4.48L6.85,8a.76.76,0,0,1-.94-.5.75.75,0,0,1,.5-.94l6.26-1.91a.76.76,0,0,1,.67.11L19.13,9,24.83,3a.75.75,0,1,1,1.09,1l-6.16,6.54A.71.71,0,0,1,19.22,10.79Z"/></g><text x="0" y="47" fill="#000000" font-size="5px" font-weight="bold" font-family="'Helvetica Neue', Helvetica, Arial-Unicode, Arial, Sans-serif">Created by SalahCoret Studio</text><text x="0" y="52" fill="#000000" font-size="5px" font-weight="bold" font-family="'Helvetica Neue', Helvetica, Arial-Unicode, Arial, Sans-serif">from the Noun Project</text></svg>